PathFileType	4	(X/Y/Z)	48_2_23_p1_0-437_filt_butterworth.trc
DataRate	CameraRate	NumFrames	NumMarkers	Units	OrigDataRate	OrigDataStartFrame	OrigNumFrames
58.0	58.0	7	27	m	58.0	54	437
Frame#	Time	RHip			RKnee			RAnkle			RBigToe			RSmallToe			RHeel			LHip			LKnee			LAnkle			LBigToe			LSmallToe			LHeel			Neck			Head			Nose			RShoulder			RElbow			RWrist			RThumb			RIndex			RPinky			LShoulder			LElbow			LWrist			LThumb			LIndex			LPinky			
		X1	Y1	Z1	X2	Y2	Z2	X3	Y3	Z3	X4	Y4	Z4	X5	Y5	Z5	X6	Y6	Z6	X7	Y7	Z7	X8	Y8	Z8	X9	Y9	Z9	X10	Y10	Z10	X11	Y11	Z11	X12	Y12	Z12	X13	Y13	Z13	X14	Y14	Z14	X15	Y15	Z15	X16	Y16	Z16	X17	Y17	Z17	X18	Y18	Z18	X19	Y19	Z19	X20	Y20	Z20	X21	Y21	Z21	X22	Y22	Z22	X23	Y23	Z23	X24	Y24	Z24	X25	Y25	Z25	X26	Y26	Z26	X27	Y27	Z27	
54	0.9310344827586208	0.2063840051632995	0.4529552085907944	0.660113657374923	0.18647420876861615	0.5551467351269819	1.0800674162657984	0.1585683407953339	0.6914711567396722	1.516120596507316	0.1153142840182021	0.5025466834443486	1.5594727655489702	0.18035214844664724	0.48747975284308626	1.552058106474412	0.13413160384020734	0.7712924530354546	1.5737764478802987	-0.026120909934047757	0.49545954175161766	0.6462464816369015	-0.041732483458674224	0.6151328577200362	1.0868402035404034	-0.04813710961654866	0.6745721629634329	1.4761917342473656	-0.05293755002073729	0.4943517148220832	1.531943153819627	-0.10813065152435189	0.5578751449984287	1.5372037680393038	-0.028076999939662547	0.7465911075328628	1.5593481569973906	0.11995737490411007	0.4153218030970691	0.037995680805254395	0.09845215482919828	0.21779266480037932	-0.2130814174571413	0.0785413134634412	0.21810701010662467	-0.038455586901176855	0.29165231146899395	0.4198222992844406	0.10210834395451857	0.38295471282616705	0.4228499490880836	0.36714554036419234	0.27812107700703836	0.18008921950781254	0.48026002103111576	0.17720983853664846	0.04680178579464101	0.5165130243389846	0.17915245084643838	0.04940899729138058	0.5277559738838951	0.2242378816980986	0.12147008735100971	0.5638833739669471	-0.06531450284016935	0.43741634838685034	0.09248606682283655	-0.12627331027632088	0.489502160521022	0.3618445209246824	-0.11895552578442228	0.2627079617967423	0.5689723917788511	-0.08321590977963716	0.16819291486838273	0.6259229876219039	-0.11581959557689325	0.13112945661051564	0.6636832276967304	-0.12426909696281865	0.2389729080599158	0.6935669875041406
55	0.9482758620689656	0.20569152345911687	0.45841776892817415	0.6581716831016082	0.18883617048770418	0.5611898220234215	1.0821134186348371	0.15858242184456764	0.691412759831332	1.5160801410067093	0.11739721513425065	0.5024875661190712	1.5597544515927426	0.1817478566364512	0.48924788329465085	1.5516483573326072	0.13413053228306987	0.7712501087710436	1.573801232138031	-0.024836588442615826	0.5018154876671826	0.6460551746511222	-0.041640866892199285	0.6151539395195558	1.0864433076810642	-0.04815499793512924	0.6743626731077896	1.4760988171483918	-0.05289304179492881	0.49452661765188743	1.532355236830902	-0.10771146282859824	0.5580774619565632	1.5382536108907396	-0.028141299401654874	0.7453877587350308	1.5589321771898965	0.11821847132170017	0.4117195996807244	0.040790629627278675	0.0940842689201862	0.21785783441719933	-0.2124283871477011	0.0750807850930981	0.2182243193374084	-0.036540744875405685	0.29012527753165057	0.4209126652973346	0.10089744648335416	0.3826879812425712	0.41525135478538483	0.36374421378985033	0.2697486466200786	0.1636625605326942	0.4690584163198318	0.17567987287439923	0.037506762500370036	0.5011771775852705	0.17588351910302732	0.04039208078595292	0.5133954703232405	0.21509568979518204	0.11133854388254719	0.5521354132934431	-0.06668599018604679	0.4388300519576862	0.09236010907578451	-0.12591459932555937	0.4884331068555431	0.3621588753224548	-0.11754273637004505	0.25851031596576546	0.5676142945120525	-0.081714461471312	0.16158535189113823	0.6245135099384564	-0.11594660389313172	0.1187241414969904	0.6603707559722148	-0.12429873016248705	0.23906752080275118	0.6937219345531385
56	0.9655172413793104	0.20526184123435975	0.4624830258186129	0.6560514220262068	0.19021456884056004	0.5646636130173217	1.0832447973632755	0.15871784260290708	0.6916204635648915	1.5167120678093902	0.11831766610223832	0.5025860969857661	1.5597591960979946	0.18290551600546398	0.4933248629044844	1.5519688196021977	0.13412855255712575	0.7712330586807344	1.5738283836687905	-0.02417757250718113	0.5095452297901215	0.6458186097761123	-0.04138467024484108	0.61514210310173	1.0854478053979078	-0.04812114861705796	0.6742530145814175	1.4760899141496227	-0.053018022072423926	0.49419858882260065	1.5322827671820494	-0.10724074148272825	0.5582735854700485	1.5397717865719405	-0.02835903180704139	0.7422294589613667	1.5581006645495181	0.1169619276231499	0.4090299369476305	0.042781763426830086	0.08932541483979765	0.21787604944198435	-0.2123789582761209	0.07190843142475087	0.21868772112745968	-0.034994628408799876	0.28813094102894754	0.4219158574860566	0.09894696961302957	0.38134851624639204	0.40290905082315787	0.3614175647932683	0.261527493809616	0.14806536119584177	0.45723386228940804	0.17142851596536263	0.032871972161068914	0.4874107363079222	0.17175685216494047	0.033929146699230965	0.4995912752488042	0.20559159343395492	0.0970464544214464	0.5399015783028543	-0.06772475897290167	0.44081185647698196	0.09229227967943479	-0.12599252424079277	0.4887885840710799	0.36212416691984245	-0.11647404521426422	0.2553488629904045	0.5670654885869666	-0.07857175802739798	0.15882835712858986	0.6231537628521571	-0.11495497759433337	0.11017340082719734	0.6577217447762245	-0.12421703476007946	0.23819152342448346	0.6936857116063243
57	0.9827586206896552	0.20551254896655702	0.46266905325277985	0.6532059570340636	0.19062285458857353	0.565614407100961	1.08313374099987	0.1589973082911076	0.6921582739423326	1.5181683168385696	0.11851808352628937	0.50302659887597	1.559864296416739	0.183315019529397	0.4967582745210277	1.553543594982639	0.13411586868134623	0.7712097795293135	1.5738282534176309	-0.023932547081652256	0.516510854980564	0.6448693008979289	-0.04103566037409959	0.6151153609556981	1.0841421736734722	-0.04792002386835772	0.6742387700782707	1.4762809027959762	-0.05312402479006809	0.49399018471304246	1.5322262263071806	-0.10722394030851373	0.5584920530782522	1.5421227189624904	-0.029008299002524045	0.7380626148467309	1.5568016589105202	0.116575806905366	0.40802167897086794	0.04375664429241212	0.08444659259966314	0.21825785886418064	-0.21261510761408325	0.06912274716687072	0.22023348827819914	-0.03384661331041466	0.2860012139043086	0.4227313158784163	0.09689859521564814	0.3790655880509928	0.383771406587167	0.3592546647882713	0.2555007526609301	0.13730894586575698	0.4459809133008227	0.16394240374588753	0.032763680407893715	0.4742074398428062	0.16633562287607817	0.030239675156882362	0.48657895363390724	0.19625709105096892	0.07991640644586859	0.5268012042795016	-0.06815828019505499	0.441843691699017	0.09231877678272847	-0.12607532610051791	0.4891105216283106	0.3620536154262001	-0.11607408322442737	0.25425060976573777	0.5671952751864691	-0.07485096517295206	0.16024265581201624	0.6211100090749302	-0.11329913971564241	0.10791549977950482	0.656218181324493	-0.12361443191284206	0.2354847912798884	0.6932021322736457
58	1.0	0.20634958669636777	0.45868385759822294	0.6493634439012591	0.19056093007809155	0.5653697523329518	1.0819173858299287	0.15934681767930883	0.6928622107487733	1.5200089679516582	0.11869169018224109	0.5038868866385869	1.5606144732683842	0.1831303622392848	0.4981721502254739	1.5558021857354343	0.13409391452762234	0.7711742274658993	1.5737536908409755	-0.023435864350916866	0.520840339329433	0.642899519984071	-0.040771458271331454	0.6151053967412056	1.0831780014431371	-0.04744176734520929	0.6743498769635932	1.4769626727154759	-0.05307204726951067	0.49431196373570624	1.5323007589207365	-0.10786886916597066	0.5587290787217377	1.5446217938011537	-0.029907340971313666	0.7348891674148813	1.5549173710453685	0.11663593666846558	0.4081246111360757	0.04398064136845435	0.07992497328492654	0.21945408080022255	-0.21270550694697765	0.06670040008697656	0.2235221100619862	-0.032603232511897146	0.2837853992707656	0.42341160258104654	0.09524523154482728	0.37687346573068276	0.363567643431347	0.35651164357988074	0.2522516362521382	0.13215482516208646	0.4358280154013216	0.1545922255219056	0.03321717373990892	0.46050691851051334	0.15972646768997037	0.027282922436788953	0.4745974819622291	0.18871281775486687	0.06557033262527526	0.51338149595056	-0.068222706538539	0.44191907870792496	0.09236040957838271	-0.12570781624034402	0.4878278030719236	0.36197404765693947	-0.11608978069795461	0.2544846977695907	0.5673439806762127	-0.07225848968138868	0.16150197855808773	0.6176978477777568	-0.11200230035444475	0.10921595717310953	0.6545534805237043	-0.12195092152306092	0.23085712835692443	0.6920164842591272
59	1.0172413793103448	0.20725867250315022	0.4528549859176294	0.6456645291546559	0.19045245467259178	0.5651068343287919	1.0802655704703088	0.15962829371351014	0.6934598489324377	1.5214709291817903	0.1188949452837841	0.5045925210355486	1.5621682610571732	0.1827447268391761	0.4982856309671147	1.5574652191217229	0.13410111755398807	0.7712097143256218	1.5737587498385617	-0.023322279942989146	0.5222080548950807	0.6403049568351145	-0.04068854577332464	0.6151236064848316	1.0828261436425712	-0.046655568843949384	0.6750379879984935	1.478290081459825	-0.052713009288193655	0.4955951585635627	1.5324233830212726	-0.1086982473334615	0.5589671384758903	1.5461511638781076	-0.030472290251832183	0.7334481487254686	1.5529017543591357	0.11641130067518625	0.4085284205241285	0.04390978886097824	0.07559426508100138	0.22123921152215087	-0.21250567150478675	0.06444665539757141	0.22753287808500539	-0.03046879351866594	0.2817561990613941	0.4229640741017971	0.09369552260628987	0.37564506181039375	0.34946680938011615	0.3533151165070684	0.2504612054871206	0.1301623574446279	0.4266977225662119	0.1448638043996483	0.030050961954038898	0.4472192961205255	0.15127011776787624	0.023094707951671005	0.46465886164872705	0.18420894961060613	0.05713836537717516	0.5013164748158102	-0.06819504582384515	0.44169013062840967	0.09237325012091936	-0.12466376948951167	0.48407961888906925	0.36180189614154634	-0.11608039360221885	0.25471996351834497	0.5666410040499835	-0.07124218734046095	0.15909503165196814	0.6132816936941283	-0.11135797800707775	0.11045611660009189	0.6512624559034392	-0.11879817960150175	0.22415491035413587	0.6898208864893167
60	1.0344827586206895	0.20778097135433665	0.4483830170406859	0.6435912202928448	0.19042166191837634	0.565166553050014	1.0790372265498454	0.15984742247327002	0.6939572295522715	1.522619901371789	0.1185725043399097	0.5037715198345336	1.5635758460669054	0.1826120337769137	0.4982016639081498	1.558045570357173	0.13422777447601394	0.7715304411671926	1.574340610701293	-0.024980619054650623	0.5218037052943615	0.6374834757901637	-0.040749714440148244	0.6151561283589383	1.0828410804940352	-0.04562175748032354	0.6772837086289282	1.479580143995047	-0.05211821241425413	0.49754939499868256	1.5325622940795602	-0.10917285213220024	0.5591191558935886	1.5465633655646644	-0.030467665692370492	0.7328906733187333	1.5515627534570704	0.11535652204571398	0.4085534877939272	0.04385894167507364	0.0712562923794108	0.22219794793777964	-0.21220109239649	0.062163253821995	0.22984591211722136	-0.02744156451124195	0.28052056972956096	0.41970681191235104	0.09193364683794193	0.3752730518692306	0.34112733351983543	0.34979610730940935	0.24822479834553007	0.12839433196433114	0.41849120062041806	0.13479598018092928	0.022747349578751214	0.4364362913084061	0.14023669141818812	0.01676188608232093	0.45735461344896644	0.18195348426673366	0.05269827932806737	0.49228216371878436	-0.06818865157450862	0.4415228371497508	0.09236374052846355	-0.12344203575652526	0.47919693052414897	0.3614843260492035	-0.11567198783018962	0.2535340275677684	0.564359884132348	-0.0708471254923915	0.15382959486146264	0.6088209129819941	-0.11085725345134322	0.10976069117841245	0.6462523500112775	-0.11439159607023992	0.2138839705589001	0.6862657815717834
